<?xml version="1.0" encoding="utf-8"?>
<!-- Generator: Adobe Illustrator 19.0.0, SVG Export Plug-In . SVG Version: 6.00 Build 0)  -->
<svg version="1.1" id="Layer_1" xmlns="http://www.w3.org/2000/svg" xmlns:xlink="http://www.w3.org/1999/xlink" x="0px" y="0px"
	 viewBox="0 0 96 96" style="enable-background:new 0 0 96 96;" xml:space="preserve">
<style type="text/css">
	.st0{fill:#333333;}
</style>
<g id="XMLID_5_">
	<path id="XMLID_7_" class="st0" d="M68.9,30.6c-4.6,0-8.9,1.8-12,4.9L48,43.4l0,0l-4.8,4.2l0,0l-8.5,7.6c-2,2-4.7,3.1-7.6,3.1
		c-5.9,0-10.7-4.8-10.7-10.7s4.8-10.7,10.7-10.7c2.9,0,5.6,1.1,7.7,3.3l3.6,3.2l4.8-4.2l-4-3.5c-3.2-3.2-7.5-5-12.1-5
		c-9.4,0-17.1,7.6-17.1,17s7.7,17,17.1,17c4.6,0,8.9-1.8,12-4.8l8.9-7.9l0,0l4.8-4.2l0,0l8.5-7.6c2-2,4.7-3.1,7.6-3.1
		c5.9,0,10.7,4.8,10.7,10.7s-4.8,10.7-10.7,10.7c-2.9,0-5.6-1.1-7.7-3.2l-3.6-3.2l-4.8,4.2l4,3.5c3.2,3.2,7.5,5,12.1,5
		c9.5,0,17.1-7.6,17.1-17S78.3,30.6,68.9,30.6z"/>
</g>
</svg>
